<mxfile host="app.diagrams.net" agent="Mozilla/5.0 (Macintosh; Intel Mac OS X 10_15_7) AppleWebKit/537.36 (KHTML, like Gecko) Chrome/130.0.0.0 Safari/537.36" version="24.8.3">
  <diagram name="Page-1" id="c7558073-3199-34d8-9f00-42111426c3f3">
    <mxGraphModel dx="1224" dy="774" grid="1" gridSize="10" guides="1" tooltips="1" connect="1" arrows="1" fold="1" page="1" pageScale="1" pageWidth="826" pageHeight="1169" background="none" math="0" shadow="0">
      <root>
        <mxCell id="0" />
        <mxCell id="1" parent="0" />
        <mxCell id="l8BCuCW5tBN9ZueDgn-v-99" style="edgeStyle=orthogonalEdgeStyle;rounded=1;orthogonalLoop=1;jettySize=auto;html=1;exitX=1;exitY=0.5;exitDx=0;exitDy=0;entryX=0;entryY=0.5;entryDx=0;entryDy=0;strokeColor=#09555B;curved=0;strokeWidth=2;labelBackgroundColor=none;fontColor=default;sketch=1;curveFitting=1;jiggle=2;" parent="1" source="3" target="12" edge="1">
          <mxGeometry relative="1" as="geometry" />
        </mxCell>
        <mxCell id="l8BCuCW5tBN9ZueDgn-v-158" value="" style="edgeStyle=orthogonalEdgeStyle;rounded=0;orthogonalLoop=1;jettySize=auto;html=1;strokeColor=#09555B;fontColor=#1A1A1A;" parent="1" source="3" target="52" edge="1">
          <mxGeometry relative="1" as="geometry" />
        </mxCell>
        <mxCell id="3" value="AR_REQ_START" style="whiteSpace=wrap;align=center;verticalAlign=middle;fontStyle=1;strokeWidth=3;fillColor=#f8cecc;labelBackgroundColor=none;strokeColor=#b85450;sketch=1;curveFitting=1;jiggle=2;shadow=1;rounded=1;" parent="1" vertex="1">
          <mxGeometry x="360" y="111" width="110" height="60" as="geometry" />
        </mxCell>
        <mxCell id="4" value="AR_IDLE" style="whiteSpace=wrap;align=center;verticalAlign=middle;fontStyle=1;strokeWidth=3;fillColor=#f8cecc;labelBackgroundColor=none;strokeColor=#b85450;sketch=1;curveFitting=1;jiggle=2;rounded=1;glass=0;shadow=1;" parent="1" vertex="1">
          <mxGeometry x="110" y="111" width="90" height="60" as="geometry" />
        </mxCell>
        <mxCell id="l8BCuCW5tBN9ZueDgn-v-103" style="edgeStyle=orthogonalEdgeStyle;rounded=1;orthogonalLoop=1;jettySize=auto;html=1;exitX=0.5;exitY=1;exitDx=0;exitDy=0;entryX=0.5;entryY=1;entryDx=0;entryDy=0;strokeColor=#09555B;strokeWidth=2;curved=0;labelBackgroundColor=none;fontColor=default;sketch=1;curveFitting=1;jiggle=2;" parent="1" source="12" target="4" edge="1">
          <mxGeometry relative="1" as="geometry">
            <Array as="points">
              <mxPoint x="654" y="210" />
              <mxPoint x="155" y="210" />
            </Array>
          </mxGeometry>
        </mxCell>
        <mxCell id="12" value="AR_REQ_END" style="whiteSpace=wrap;align=center;verticalAlign=middle;fontStyle=1;strokeWidth=3;fillColor=#f8cecc;labelBackgroundColor=none;strokeColor=#b85450;rounded=1;sketch=1;curveFitting=1;jiggle=2;shadow=1;" parent="1" vertex="1">
          <mxGeometry x="600" y="111" width="109" height="60" as="geometry" />
        </mxCell>
        <mxCell id="l8BCuCW5tBN9ZueDgn-v-105" style="edgeStyle=orthogonalEdgeStyle;rounded=0;orthogonalLoop=1;jettySize=auto;html=1;exitX=1;exitY=0.5;exitDx=0;exitDy=0;entryX=0;entryY=0.5;entryDx=0;entryDy=0;labelBackgroundColor=none;strokeColor=#09555B;fontColor=default;strokeWidth=2;sketch=1;curveFitting=1;jiggle=2;" parent="1" source="13" target="15" edge="1">
          <mxGeometry relative="1" as="geometry" />
        </mxCell>
        <mxCell id="13" value="R_DATA_START" style="whiteSpace=wrap;align=center;verticalAlign=middle;fontStyle=1;strokeWidth=3;fillColor=#f8cecc;labelBackgroundColor=none;strokeColor=#b85450;sketch=1;curveFitting=1;jiggle=2;shadow=1;rounded=1;" parent="1" vertex="1">
          <mxGeometry x="358.25" y="340" width="102" height="60" as="geometry" />
        </mxCell>
        <mxCell id="l8BCuCW5tBN9ZueDgn-v-104" style="edgeStyle=orthogonalEdgeStyle;rounded=0;orthogonalLoop=1;jettySize=auto;html=1;exitX=1;exitY=0.5;exitDx=0;exitDy=0;entryX=0;entryY=0.5;entryDx=0;entryDy=0;labelBackgroundColor=none;strokeColor=#09555B;fontColor=default;strokeWidth=2;sketch=1;curveFitting=1;jiggle=2;" parent="1" source="14" target="13" edge="1">
          <mxGeometry relative="1" as="geometry" />
        </mxCell>
        <mxCell id="14" value="R_IDLE" style="whiteSpace=wrap;align=center;verticalAlign=middle;fontStyle=1;strokeWidth=3;fillColor=#f8cecc;labelBackgroundColor=none;strokeColor=#b85450;sketch=1;curveFitting=1;jiggle=2;shadow=1;rounded=1;" parent="1" vertex="1">
          <mxGeometry x="96.24999999999997" y="339.9999999999999" width="90" height="60" as="geometry" />
        </mxCell>
        <mxCell id="l8BCuCW5tBN9ZueDgn-v-106" style="edgeStyle=orthogonalEdgeStyle;rounded=1;orthogonalLoop=1;jettySize=auto;html=1;exitX=0.5;exitY=1;exitDx=0;exitDy=0;entryX=0.5;entryY=1;entryDx=0;entryDy=0;labelBackgroundColor=none;strokeColor=#09555B;fontColor=default;strokeWidth=2;curved=0;sketch=1;curveFitting=1;jiggle=2;" parent="1" source="15" target="14" edge="1">
          <mxGeometry relative="1" as="geometry">
            <Array as="points">
              <mxPoint x="650.25" y="440" />
              <mxPoint x="141.25" y="440" />
            </Array>
          </mxGeometry>
        </mxCell>
        <mxCell id="15" value="R_DATA_END" style="whiteSpace=wrap;align=center;verticalAlign=middle;fontStyle=1;strokeWidth=3;fillColor=#f8cecc;labelBackgroundColor=none;strokeColor=#b85450;sketch=1;curveFitting=1;jiggle=2;shadow=1;rounded=1;" parent="1" vertex="1">
          <mxGeometry x="605.7499999999999" y="340" width="90" height="60" as="geometry" />
        </mxCell>
        <mxCell id="37" value="" style="edgeStyle=none;noEdgeStyle=1;strokeColor=#09555B;strokeWidth=2;entryX=0;entryY=0.5;entryDx=0;entryDy=0;labelBackgroundColor=none;fontColor=default;sketch=1;curveFitting=1;jiggle=2;" parent="1" source="4" target="3" edge="1">
          <mxGeometry width="100" height="100" relative="1" as="geometry">
            <mxPoint x="350" y="50" as="sourcePoint" />
            <mxPoint x="306" y="141" as="targetPoint" />
          </mxGeometry>
        </mxCell>
        <mxCell id="52" value="rd_inst_req | rd_data_req" style="text;spacingTop=-5;align=center;labelBackgroundColor=none;fontColor=#1A1A1A;fontFamily=Caveat;fontSource=https%3A%2F%2Ffonts.googleapis.com%2Fcss%3Ffamily%3DCaveat;fontStyle=1;fontSize=15;" parent="1" vertex="1">
          <mxGeometry x="240" y="120" width="75" height="21" as="geometry" />
        </mxCell>
        <mxCell id="60" value="arvalid &amp; arready" style="text;spacingTop=-5;align=center;labelBackgroundColor=none;fontColor=#1A1A1A;fontFamily=Caveat;fontSource=https%3A%2F%2Ffonts.googleapis.com%2Fcss%3Ffamily%3DCaveat;fontStyle=1;fontSize=15;" parent="1" vertex="1">
          <mxGeometry x="520" y="120" width="30" height="20" as="geometry" />
        </mxCell>
        <mxCell id="l8BCuCW5tBN9ZueDgn-v-101" style="edgeStyle=orthogonalEdgeStyle;rounded=0;orthogonalLoop=1;jettySize=auto;html=1;exitX=0.78;exitY=0.005;exitDx=0;exitDy=0;entryX=0.25;entryY=0;entryDx=0;entryDy=0;exitPerimeter=0;curved=1;strokeColor=#09555B;strokeWidth=2;labelBackgroundColor=none;fontColor=default;sketch=1;curveFitting=1;jiggle=2;" parent="1" source="4" target="4" edge="1">
          <mxGeometry relative="1" as="geometry">
            <Array as="points">
              <mxPoint x="180" y="91" />
              <mxPoint x="180" y="60" />
              <mxPoint x="133" y="60" />
            </Array>
          </mxGeometry>
        </mxCell>
        <mxCell id="l8BCuCW5tBN9ZueDgn-v-102" value="areset | read_bock" style="text;spacingTop=-5;align=center;labelBackgroundColor=none;fontColor=#1A1A1A;fontFamily=Caveat;fontSource=https%3A%2F%2Ffonts.googleapis.com%2Fcss%3Ffamily%3DCaveat;fontSize=14;" parent="1" vertex="1">
          <mxGeometry x="125" y="40" width="75" height="21" as="geometry" />
        </mxCell>
        <mxCell id="l8BCuCW5tBN9ZueDgn-v-108" value="rvalid &amp; rready &amp; rlast" style="text;spacingTop=-5;align=center;labelBackgroundColor=none;fontColor=#1A1A1A;fontStyle=1;fontFamily=Caveat;fontSource=https%3A%2F%2Ffonts.googleapis.com%2Fcss%3Ffamily%3DCaveat;fontSize=15;" parent="1" vertex="1">
          <mxGeometry x="516.25" y="350" width="30" height="20" as="geometry" />
        </mxCell>
        <mxCell id="l8BCuCW5tBN9ZueDgn-v-111" value="arvalid &amp; arready &#xa;&#xa;| (| ar_wait_resp_cnt)" style="text;spacingTop=-5;align=center;labelBackgroundColor=none;fontColor=#1A1A1A;fontSize=15;fontFamily=Caveat;fontSource=https%3A%2F%2Ffonts.googleapis.com%2Fcss%3Ffamily%3DCaveat;fontStyle=1" parent="1" vertex="1">
          <mxGeometry x="226.25" y="340" width="75" height="21" as="geometry" />
        </mxCell>
        <mxCell id="l8BCuCW5tBN9ZueDgn-v-112" style="edgeStyle=orthogonalEdgeStyle;rounded=0;orthogonalLoop=1;jettySize=auto;html=1;exitX=0.75;exitY=0;exitDx=0;exitDy=0;entryX=0.25;entryY=0;entryDx=0;entryDy=0;strokeColor=#09555B;fontColor=#1A1A1A;strokeWidth=2;curved=1;" parent="1" source="14" target="14" edge="1">
          <mxGeometry relative="1" as="geometry">
            <Array as="points">
              <mxPoint x="164.25" y="320" />
              <mxPoint x="163.25" y="310" />
              <mxPoint x="119.25" y="310" />
            </Array>
          </mxGeometry>
        </mxCell>
        <mxCell id="l8BCuCW5tBN9ZueDgn-v-113" value="aresetÂ " style="text;spacingTop=-5;align=center;labelBackgroundColor=none;fontColor=#1A1A1A;fontFamily=Caveat;fontSource=https%3A%2F%2Ffonts.googleapis.com%2Fcss%3Ffamily%3DCaveat;fontStyle=1;fontSize=15;" parent="1" vertex="1">
          <mxGeometry x="106.25" y="290" width="75" height="21" as="geometry" />
        </mxCell>
        <mxCell id="l8BCuCW5tBN9ZueDgn-v-131" style="edgeStyle=orthogonalEdgeStyle;rounded=1;orthogonalLoop=1;jettySize=auto;html=1;exitX=1;exitY=0.25;exitDx=0;exitDy=0;entryX=0;entryY=0.5;entryDx=0;entryDy=0;strokeColor=#09555B;fontColor=#1A1A1A;strokeWidth=2;curved=0;sketch=1;curveFitting=1;jiggle=2;" parent="1" source="l8BCuCW5tBN9ZueDgn-v-115" target="l8BCuCW5tBN9ZueDgn-v-119" edge="1">
          <mxGeometry relative="1" as="geometry" />
        </mxCell>
        <mxCell id="l8BCuCW5tBN9ZueDgn-v-133" style="edgeStyle=orthogonalEdgeStyle;rounded=1;orthogonalLoop=1;jettySize=auto;html=1;exitX=1;exitY=0.75;exitDx=0;exitDy=0;entryX=0;entryY=0.5;entryDx=0;entryDy=0;strokeColor=#09555B;fontColor=#1A1A1A;strokeWidth=2;curved=0;sketch=1;curveFitting=1;jiggle=2;" parent="1" source="l8BCuCW5tBN9ZueDgn-v-115" target="l8BCuCW5tBN9ZueDgn-v-125" edge="1">
          <mxGeometry relative="1" as="geometry" />
        </mxCell>
        <mxCell id="l8BCuCW5tBN9ZueDgn-v-137" style="edgeStyle=orthogonalEdgeStyle;rounded=1;orthogonalLoop=1;jettySize=auto;html=1;exitX=0.5;exitY=0;exitDx=0;exitDy=0;entryX=0.5;entryY=0;entryDx=0;entryDy=0;strokeColor=#09555B;fontColor=#1A1A1A;strokeWidth=2;curved=0;sketch=1;curveFitting=1;jiggle=2;" parent="1" source="l8BCuCW5tBN9ZueDgn-v-115" target="l8BCuCW5tBN9ZueDgn-v-126" edge="1">
          <mxGeometry relative="1" as="geometry">
            <Array as="points">
              <mxPoint x="339" y="580" />
              <mxPoint x="690" y="580" />
            </Array>
          </mxGeometry>
        </mxCell>
        <mxCell id="l8BCuCW5tBN9ZueDgn-v-115" value="W_REQ_START" style="whiteSpace=wrap;align=center;verticalAlign=middle;fontStyle=1;strokeWidth=3;fillColor=#f8cecc;labelBackgroundColor=none;strokeColor=#b85450;sketch=1;curveFitting=1;jiggle=2;shadow=1;rounded=1;" parent="1" vertex="1">
          <mxGeometry x="288" y="700" width="102" height="59" as="geometry" />
        </mxCell>
        <mxCell id="l8BCuCW5tBN9ZueDgn-v-116" style="edgeStyle=orthogonalEdgeStyle;rounded=0;orthogonalLoop=1;jettySize=auto;html=1;exitX=1;exitY=0.5;exitDx=0;exitDy=0;entryX=0;entryY=0.5;entryDx=0;entryDy=0;labelBackgroundColor=none;strokeColor=#09555B;fontColor=default;strokeWidth=2;sketch=1;curveFitting=1;jiggle=2;" parent="1" source="l8BCuCW5tBN9ZueDgn-v-117" target="l8BCuCW5tBN9ZueDgn-v-115" edge="1">
          <mxGeometry relative="1" as="geometry" />
        </mxCell>
        <mxCell id="l8BCuCW5tBN9ZueDgn-v-117" value="W_IDLE" style="whiteSpace=wrap;align=center;verticalAlign=middle;fontStyle=1;strokeWidth=3;fillColor=#f8cecc;labelBackgroundColor=none;strokeColor=#b85450;sketch=1;curveFitting=1;jiggle=2;shadow=1;rounded=1;" parent="1" vertex="1">
          <mxGeometry x="94.99999999999997" y="698.9999999999999" width="90" height="60" as="geometry" />
        </mxCell>
        <mxCell id="l8BCuCW5tBN9ZueDgn-v-129" style="edgeStyle=orthogonalEdgeStyle;rounded=1;orthogonalLoop=1;jettySize=auto;html=1;exitX=1;exitY=0.5;exitDx=0;exitDy=0;entryX=0;entryY=0.25;entryDx=0;entryDy=0;strokeColor=#09555B;fontColor=#1A1A1A;curved=0;strokeWidth=2;sketch=1;curveFitting=1;jiggle=2;" parent="1" source="l8BCuCW5tBN9ZueDgn-v-119" target="l8BCuCW5tBN9ZueDgn-v-126" edge="1">
          <mxGeometry relative="1" as="geometry" />
        </mxCell>
        <mxCell id="l8BCuCW5tBN9ZueDgn-v-119" value="W_ADDR_RESP" style="whiteSpace=wrap;align=center;verticalAlign=middle;fontStyle=1;strokeWidth=3;fillColor=#f8cecc;labelBackgroundColor=none;strokeColor=#b85450;sketch=1;curveFitting=1;jiggle=2;shadow=1;rounded=1;" parent="1" vertex="1">
          <mxGeometry x="466" y="610" width="100" height="60" as="geometry" />
        </mxCell>
        <mxCell id="l8BCuCW5tBN9ZueDgn-v-120" value="(awvalid &amp; awready &amp;wvalid &amp; wready) | ((|aw_wait_resp_cnt) &amp; (|wd_wait_resp_cnt))" style="text;spacingTop=-5;align=center;labelBackgroundColor=none;fontColor=#1A1A1A;fontStyle=1;fontFamily=Caveat;fontSource=https%3A%2F%2Ffonts.googleapis.com%2Fcss%3Ffamily%3DCaveat;fontSize=15;" parent="1" vertex="1">
          <mxGeometry x="505" y="560" width="30" height="20" as="geometry" />
        </mxCell>
        <mxCell id="l8BCuCW5tBN9ZueDgn-v-121" value="data_sram_req" style="text;spacingTop=-5;align=center;labelBackgroundColor=none;fontColor=#1A1A1A;sketch=1;curveFitting=1;jiggle=2;fontFamily=Caveat;fontSource=https%3A%2F%2Ffonts.googleapis.com%2Fcss%3Ffamily%3DCaveat;fontStyle=1;fontSize=15;" parent="1" vertex="1">
          <mxGeometry x="195" y="708" width="75" height="21" as="geometry" />
        </mxCell>
        <mxCell id="l8BCuCW5tBN9ZueDgn-v-122" style="edgeStyle=orthogonalEdgeStyle;rounded=0;orthogonalLoop=1;jettySize=auto;html=1;exitX=0.75;exitY=0;exitDx=0;exitDy=0;entryX=0.25;entryY=0;entryDx=0;entryDy=0;strokeColor=#09555B;fontColor=#1A1A1A;strokeWidth=2;curved=1;sketch=1;curveFitting=1;jiggle=2;" parent="1" source="l8BCuCW5tBN9ZueDgn-v-117" target="l8BCuCW5tBN9ZueDgn-v-117" edge="1">
          <mxGeometry relative="1" as="geometry">
            <Array as="points">
              <mxPoint x="163" y="679" />
              <mxPoint x="162" y="669" />
              <mxPoint x="118" y="669" />
            </Array>
          </mxGeometry>
        </mxCell>
        <mxCell id="l8BCuCW5tBN9ZueDgn-v-123" value="aresetÂ " style="text;spacingTop=-5;align=center;labelBackgroundColor=none;fontColor=#1A1A1A;fontFamily=Caveat;fontSource=https%3A%2F%2Ffonts.googleapis.com%2Fcss%3Ffamily%3DCaveat;fontStyle=1;fontSize=15;" parent="1" vertex="1">
          <mxGeometry x="110" y="649" width="75" height="21" as="geometry" />
        </mxCell>
        <mxCell id="l8BCuCW5tBN9ZueDgn-v-130" style="edgeStyle=orthogonalEdgeStyle;rounded=1;orthogonalLoop=1;jettySize=auto;html=1;exitX=1;exitY=0.5;exitDx=0;exitDy=0;entryX=0;entryY=0.75;entryDx=0;entryDy=0;strokeColor=#09555B;fontColor=#1A1A1A;curved=0;strokeWidth=2;sketch=1;curveFitting=1;jiggle=2;" parent="1" source="l8BCuCW5tBN9ZueDgn-v-125" target="l8BCuCW5tBN9ZueDgn-v-126" edge="1">
          <mxGeometry relative="1" as="geometry" />
        </mxCell>
        <mxCell id="l8BCuCW5tBN9ZueDgn-v-125" value="W_DATA_RESP" style="whiteSpace=wrap;align=center;verticalAlign=middle;fontStyle=1;strokeWidth=3;fillColor=#f8cecc;labelBackgroundColor=none;strokeColor=#b85450;sketch=1;curveFitting=1;jiggle=2;shadow=1;rounded=1;" parent="1" vertex="1">
          <mxGeometry x="466" y="788" width="100" height="60" as="geometry" />
        </mxCell>
        <mxCell id="l8BCuCW5tBN9ZueDgn-v-134" style="edgeStyle=orthogonalEdgeStyle;rounded=1;orthogonalLoop=1;jettySize=auto;html=1;exitX=0.5;exitY=1;exitDx=0;exitDy=0;entryX=0.5;entryY=1;entryDx=0;entryDy=0;strokeColor=#09555B;fontColor=#1A1A1A;curved=0;strokeWidth=2;sketch=1;curveFitting=1;jiggle=2;" parent="1" source="l8BCuCW5tBN9ZueDgn-v-126" target="l8BCuCW5tBN9ZueDgn-v-117" edge="1">
          <mxGeometry relative="1" as="geometry">
            <Array as="points">
              <mxPoint x="690" y="880" />
              <mxPoint x="140" y="880" />
            </Array>
          </mxGeometry>
        </mxCell>
        <mxCell id="l8BCuCW5tBN9ZueDgn-v-126" value="W_REQ_END" style="whiteSpace=wrap;align=center;verticalAlign=middle;fontStyle=1;strokeWidth=3;fillColor=#f8cecc;labelBackgroundColor=none;strokeColor=#b85450;sketch=1;curveFitting=1;jiggle=2;shadow=1;rounded=1;" parent="1" vertex="1">
          <mxGeometry x="645" y="699" width="90" height="59" as="geometry" />
        </mxCell>
        <mxCell id="l8BCuCW5tBN9ZueDgn-v-136" value="bvalid &amp; bready" style="text;spacingTop=-5;align=center;labelBackgroundColor=none;fontColor=#1A1A1A;fontFamily=Caveat;fontSource=https%3A%2F%2Ffonts.googleapis.com%2Fcss%3Ffamily%3DCaveat;fontStyle=1;fontSize=15;" parent="1" vertex="1">
          <mxGeometry x="396" y="880" width="30" height="20" as="geometry" />
        </mxCell>
        <mxCell id="l8BCuCW5tBN9ZueDgn-v-139" value="awvalid &amp; awready |Â &#xa;(|aw_wait_resp_cnt)" style="text;spacingTop=-5;align=center;labelBackgroundColor=none;fontColor=#1A1A1A;fontFamily=Caveat;fontSource=https%3A%2F%2Ffonts.googleapis.com%2Fcss%3Ffamily%3DCaveat;fontStyle=1;fontSize=15;" parent="1" vertex="1">
          <mxGeometry x="390" y="600" width="30" height="20" as="geometry" />
        </mxCell>
        <mxCell id="l8BCuCW5tBN9ZueDgn-v-140" value="wvalid &amp; wready |&#xa;(|w_wait_resp_cnt)" style="text;spacingTop=-5;align=center;labelBackgroundColor=none;fontColor=#1A1A1A;fontFamily=Caveat;fontSource=https%3A%2F%2Ffonts.googleapis.com%2Fcss%3Ffamily%3DCaveat;fontStyle=1;fontSize=15;" parent="1" vertex="1">
          <mxGeometry x="390" y="820" width="30" height="20" as="geometry" />
        </mxCell>
        <mxCell id="l8BCuCW5tBN9ZueDgn-v-141" value="wvalid &amp; wready" style="text;spacingTop=-5;align=center;labelBackgroundColor=none;fontColor=#1A1A1A;fontFamily=Caveat;fontSource=https%3A%2F%2Ffonts.googleapis.com%2Fcss%3Ffamily%3DCaveat;fontStyle=1;fontSize=15;" parent="1" vertex="1">
          <mxGeometry x="605" y="620" width="30" height="20" as="geometry" />
        </mxCell>
        <mxCell id="l8BCuCW5tBN9ZueDgn-v-142" value="awvalid &amp; awready" style="text;spacingTop=-5;align=center;labelBackgroundColor=none;fontColor=#1A1A1A;fontFamily=Caveat;fontSource=https%3A%2F%2Ffonts.googleapis.com%2Fcss%3Ffamily%3DCaveat;fontStyle=1;fontSize=15;" parent="1" vertex="1">
          <mxGeometry x="605" y="820" width="30" height="20" as="geometry" />
        </mxCell>
        <mxCell id="l8BCuCW5tBN9ZueDgn-v-145" style="edgeStyle=orthogonalEdgeStyle;rounded=0;orthogonalLoop=1;jettySize=auto;html=1;exitX=1;exitY=0.5;exitDx=0;exitDy=0;entryX=0;entryY=0.5;entryDx=0;entryDy=0;labelBackgroundColor=none;strokeColor=#09555B;fontColor=default;strokeWidth=2;sketch=1;curveFitting=1;jiggle=2;" parent="1" edge="1">
          <mxGeometry relative="1" as="geometry">
            <mxPoint x="432.9999999999999" y="1020" as="sourcePoint" />
            <mxPoint x="570.9999999999998" y="1020" as="targetPoint" />
          </mxGeometry>
        </mxCell>
        <mxCell id="l8BCuCW5tBN9ZueDgn-v-146" value="B_START" style="whiteSpace=wrap;align=center;verticalAlign=middle;fontStyle=1;strokeWidth=3;fillColor=#f8cecc;labelBackgroundColor=none;strokeColor=#b85450;sketch=1;curveFitting=1;jiggle=2;shadow=1;rounded=1;" parent="1" vertex="1">
          <mxGeometry x="331" y="990" width="102" height="60" as="geometry" />
        </mxCell>
        <mxCell id="l8BCuCW5tBN9ZueDgn-v-147" style="edgeStyle=orthogonalEdgeStyle;rounded=0;orthogonalLoop=1;jettySize=auto;html=1;exitX=1;exitY=0.5;exitDx=0;exitDy=0;entryX=0;entryY=0.5;entryDx=0;entryDy=0;labelBackgroundColor=none;strokeColor=#09555B;fontColor=default;strokeWidth=2;sketch=1;curveFitting=1;jiggle=2;" parent="1" source="l8BCuCW5tBN9ZueDgn-v-148" target="l8BCuCW5tBN9ZueDgn-v-146" edge="1">
          <mxGeometry relative="1" as="geometry" />
        </mxCell>
        <mxCell id="l8BCuCW5tBN9ZueDgn-v-148" value="B_IDLE" style="whiteSpace=wrap;align=center;verticalAlign=middle;fontStyle=1;strokeWidth=3;fillColor=#f8cecc;labelBackgroundColor=none;strokeColor=#b85450;sketch=1;curveFitting=1;jiggle=2;shadow=1;rounded=1;" parent="1" vertex="1">
          <mxGeometry x="165.99999999999997" y="989.9999999999999" width="90" height="60" as="geometry" />
        </mxCell>
        <mxCell id="l8BCuCW5tBN9ZueDgn-v-155" style="edgeStyle=orthogonalEdgeStyle;rounded=1;orthogonalLoop=1;jettySize=auto;html=1;exitX=0.5;exitY=1;exitDx=0;exitDy=0;entryX=0.5;entryY=1;entryDx=0;entryDy=0;strokeColor=#09555B;fontColor=#1A1A1A;strokeWidth=2;curved=0;sketch=1;curveFitting=1;jiggle=2;" parent="1" source="l8BCuCW5tBN9ZueDgn-v-150" target="l8BCuCW5tBN9ZueDgn-v-148" edge="1">
          <mxGeometry relative="1" as="geometry">
            <Array as="points">
              <mxPoint x="616" y="1080" />
              <mxPoint x="211" y="1080" />
            </Array>
          </mxGeometry>
        </mxCell>
        <mxCell id="l8BCuCW5tBN9ZueDgn-v-150" value="B_END" style="whiteSpace=wrap;align=center;verticalAlign=middle;fontStyle=1;strokeWidth=3;fillColor=#f8cecc;labelBackgroundColor=none;strokeColor=#b85450;sketch=1;curveFitting=1;jiggle=2;shadow=1;rounded=1;" parent="1" vertex="1">
          <mxGeometry x="570.9999999999999" y="990" width="90" height="60" as="geometry" />
        </mxCell>
        <mxCell id="l8BCuCW5tBN9ZueDgn-v-151" value="bvalid &amp;&amp; bready" style="text;spacingTop=-5;align=center;labelBackgroundColor=none;fontColor=#1A1A1A;fontFamily=Caveat;fontSource=https%3A%2F%2Ffonts.googleapis.com%2Fcss%3Ffamily%3DCaveat;fontStyle=1;fontSize=15;" parent="1" vertex="1">
          <mxGeometry x="482" y="999" width="30" height="20" as="geometry" />
        </mxCell>
        <mxCell id="l8BCuCW5tBN9ZueDgn-v-152" value="bready" style="text;spacingTop=-5;align=center;labelBackgroundColor=none;fontColor=#1A1A1A;fontFamily=Caveat;fontSource=https%3A%2F%2Ffonts.googleapis.com%2Fcss%3Ffamily%3DCaveat;fontStyle=1;fontSize=15;" parent="1" vertex="1">
          <mxGeometry x="256" y="999" width="75" height="21" as="geometry" />
        </mxCell>
        <mxCell id="l8BCuCW5tBN9ZueDgn-v-154" value="aresetÂ " style="text;spacingTop=-5;align=center;labelBackgroundColor=none;fontColor=#1A1A1A;fontFamily=Caveat;fontSource=https%3A%2F%2Ffonts.googleapis.com%2Fcss%3Ffamily%3DCaveat;fontStyle=1;fontSize=15;" parent="1" vertex="1">
          <mxGeometry x="177.25" y="940" width="75" height="21" as="geometry" />
        </mxCell>
        <mxCell id="l8BCuCW5tBN9ZueDgn-v-156" style="edgeStyle=orthogonalEdgeStyle;rounded=1;orthogonalLoop=1;jettySize=auto;html=1;exitX=0.75;exitY=0;exitDx=0;exitDy=0;entryX=0.25;entryY=0;entryDx=0;entryDy=0;strokeColor=#09555B;fontColor=#1A1A1A;strokeWidth=2;curved=0;sketch=1;curveFitting=1;jiggle=2;" parent="1" edge="1">
          <mxGeometry relative="1" as="geometry">
            <mxPoint x="233.5" y="990" as="sourcePoint" />
            <mxPoint x="188.5" y="990" as="targetPoint" />
            <Array as="points">
              <mxPoint x="233" y="970" />
              <mxPoint x="233" y="960" />
              <mxPoint x="189" y="960" />
            </Array>
          </mxGeometry>
        </mxCell>
      </root>
    </mxGraphModel>
  </diagram>
</mxfile>
